<svg xmlns="http://www.w3.org/2000/svg" viewBox="0 0 100 100">
  <defs>
    <linearGradient id="grad" x1="0%" y1="0%" x2="100%" y2="100%">
      <stop offset="0%" style="stop-color:#635BFF;stop-opacity:1" />
      <stop offset="100%" style="stop-color:#00D4FF;stop-opacity:1" />
    </linearGradient>
  </defs>
  
  <!-- Background circle -->
  <circle cx="50" cy="50" r="48" fill="url(#grad)"/>
  
  <!-- Book icon -->
  <g fill="#ffffff">
    <!-- Left page -->
    <path d="M 30 30 L 30 70 Q 30 72 32 72 L 48 72 L 48 30 Z"/>
    <!-- Right page -->
    <path d="M 52 30 L 52 72 L 68 72 Q 70 72 70 70 L 70 30 Z"/>
    <!-- Spine highlight -->
    <rect x="48" y="30" width="4" height="42" fill="#ffffff" opacity="0.7"/>
    <!-- Page lines (left) -->
    <rect x="34" y="38" width="10" height="1.5" rx="0.75" opacity="0.6"/>
    <rect x="34" y="44" width="12" height="1.5" rx="0.75" opacity="0.6"/>
    <rect x="34" y="50" width="10" height="1.5" rx="0.75" opacity="0.6"/>
    <!-- Page lines (right) -->
    <rect x="56" y="38" width="10" height="1.5" rx="0.75" opacity="0.6"/>
    <rect x="56" y="44" width="12" height="1.5" rx="0.75" opacity="0.6"/>
    <rect x="56" y="50" width="10" height="1.5" rx="0.75" opacity="0.6"/>
    <!-- Jungle leaf accent -->
    <path d="M 62 60 Q 66 58 68 62 Q 66 64 64 63 Q 62 62 62 60 Z" opacity="0.8"/>
    <path d="M 35 60 Q 33 58 30 62 Q 32 64 34 63 Q 36 62 35 60 Z" opacity="0.8"/>
  </g>
</svg>

